<?xml version="1.0" standalone="no"?>
<svg xmlns:xlink="http://www.w3.org/1999/xlink" id="wave" style="transform:rotate(180deg); transition: 0.3s" viewBox="0 0 1440 100" version="1.1" xmlns="http://www.w3.org/2000/svg"><defs><linearGradient id="sw-gradient-0" x1="0" x2="0" y1="1" y2="0"><stop stop-color="rgba(255, 249, 234, 1)" offset="0%"/><stop stop-color="rgba(255, 249, 234, 1)" offset="100%"/></linearGradient></defs><path style="transform:translate(0, 0px); opacity:1" fill="url(#sw-gradient-0)" d="M0,60L20,53.3C40,47,80,33,120,33.3C160,33,200,47,240,45C280,43,320,27,360,18.3C400,10,440,10,480,23.3C520,37,560,63,600,63.3C640,63,680,37,720,25C760,13,800,17,840,20C880,23,920,27,960,23.3C1000,20,1040,10,1080,16.7C1120,23,1160,47,1200,46.7C1240,47,1280,23,1320,25C1360,27,1400,53,1440,61.7C1480,70,1520,60,1560,60C1600,60,1640,70,1680,65C1720,60,1760,40,1800,33.3C1840,27,1880,33,1920,43.3C1960,53,2000,67,2040,70C2080,73,2120,67,2160,53.3C2200,40,2240,20,2280,10C2320,0,2360,0,2400,8.3C2440,17,2480,33,2520,36.7C2560,40,2600,30,2640,23.3C2680,17,2720,13,2760,15C2800,17,2840,23,2860,26.7L2880,30L2880,100L2860,100C2840,100,2800,100,2760,100C2720,100,2680,100,2640,100C2600,100,2560,100,2520,100C2480,100,2440,100,2400,100C2360,100,2320,100,2280,100C2240,100,2200,100,2160,100C2120,100,2080,100,2040,100C2000,100,1960,100,1920,100C1880,100,1840,100,1800,100C1760,100,1720,100,1680,100C1640,100,1600,100,1560,100C1520,100,1480,100,1440,100C1400,100,1360,100,1320,100C1280,100,1240,100,1200,100C1160,100,1120,100,1080,100C1040,100,1000,100,960,100C920,100,880,100,840,100C800,100,760,100,720,100C680,100,640,100,600,100C560,100,520,100,480,100C440,100,400,100,360,100C320,100,280,100,240,100C200,100,160,100,120,100C80,100,40,100,20,100L0,100Z"/></svg>